<svg width="252" height="135" viewBox="0 0 252 135" fill="none" xmlns="http://www.w3.org/2000/svg">
<path d="M8.60177 67.5L16.7496 2.25217C16.8746 1.25121 17.7255 0.5 18.7342 0.5H36.9684H125.735H214.502H232.736C233.745 0.5 234.596 1.25121 234.721 2.25217L242.868 67.5L250.954 132.252C251.103 133.446 250.173 134.5 248.97 134.5H231.235H125.735H20.2351H16.9684H2.50039C1.29749 134.5 0.366751 133.446 0.515806 132.252L8.60177 67.5Z" fill="#27502A"/>
<path d="M125.735 0.5H18.7342C17.7255 0.5 16.8746 1.25121 16.7496 2.25217L8.60177 67.5L0.515806 132.252C0.366751 133.446 1.29749 134.5 2.50039 134.5H16.9684H125.735M125.735 0.5H232.736C233.745 0.5 234.596 1.25121 234.721 2.25217L242.868 67.5L250.954 132.252C251.103 133.446 250.173 134.5 248.97 134.5H125.735M125.735 0.5V134.5M36.9684 0.5L28.6018 67.5L20.2351 134.5M214.502 0.5L222.869 67.5L231.235 134.5" stroke="white" stroke-opacity="0.5"/>
<rect width="33" height="34" transform="translate(109.235 50.5)" fill="#27502A"/>
<path d="M120.656 72.5L116.592 61.044H118.096L120.928 69.348L121.312 70.484H121.376L121.776 69.348L124.736 61.044H126.24L122.048 72.5H120.656ZM130.707 72.756C130.152 72.756 129.603 72.6387 129.059 72.404C128.515 72.1693 128.035 71.8227 127.619 71.364C127.203 70.9053 126.899 70.3347 126.707 69.652L128.003 69.124C128.184 69.7853 128.515 70.34 128.995 70.788C129.475 71.236 130.056 71.46 130.739 71.46C131.166 71.46 131.555 71.3853 131.907 71.236C132.27 71.076 132.558 70.8467 132.771 70.548C132.995 70.2493 133.107 69.8867 133.107 69.46C133.107 69.076 133.011 68.7507 132.819 68.484C132.638 68.2173 132.36 67.9827 131.987 67.78C131.614 67.5667 131.155 67.364 130.611 67.172L129.891 66.916C129.571 66.7987 129.246 66.66 128.915 66.5C128.595 66.3293 128.296 66.1267 128.019 65.892C127.752 65.6467 127.539 65.3587 127.379 65.028C127.219 64.6867 127.139 64.2867 127.139 63.828C127.139 63.2733 127.288 62.7667 127.587 62.308C127.886 61.8493 128.296 61.4813 128.819 61.204C129.342 60.9267 129.944 60.788 130.627 60.788C131.342 60.788 131.939 60.9213 132.419 61.188C132.91 61.444 133.294 61.7533 133.571 62.116C133.859 62.468 134.051 62.7933 134.147 63.092L132.883 63.636C132.819 63.412 132.696 63.1827 132.515 62.948C132.334 62.7027 132.088 62.5 131.779 62.34C131.48 62.1693 131.102 62.084 130.643 62.084C130.27 62.084 129.918 62.1587 129.587 62.308C129.267 62.4573 129.006 62.6653 128.803 62.932C128.611 63.188 128.515 63.4867 128.515 63.828C128.515 64.308 128.707 64.6867 129.091 64.964C129.475 65.2413 129.992 65.492 130.643 65.716L131.395 65.972C131.736 66.0893 132.083 66.2333 132.435 66.404C132.798 66.5747 133.134 66.7933 133.443 67.06C133.752 67.3267 134.003 67.6573 134.195 68.052C134.387 68.436 134.483 68.9 134.483 69.444C134.483 70.0307 134.366 70.5373 134.131 70.964C133.907 71.38 133.608 71.7213 133.235 71.988C132.862 72.2547 132.451 72.4467 132.003 72.564C131.566 72.692 131.134 72.756 130.707 72.756Z" fill="white"/>
</svg>
